<svg width="39" height="40" viewBox="0 0 39 40" fill="none" xmlns="http://www.w3.org/2000/svg">
<path d="M33.0953 14.5157V6.54238L25.122 6.54238L19.4842 0.904541L13.8463 6.54238L5.87304 6.54238L5.87304 14.5157L0.235199 20.1535L5.87304 25.7913L5.87304 33.7646H13.8463L19.4842 39.4025L25.122 33.7646L33.0953 33.7646L33.0953 25.7913L38.7331 20.1535L33.0953 14.5157ZM30.8388 24.8567V31.5081H24.1874L19.4842 36.2113L14.7809 31.5081H8.12953V24.8567L3.42632 20.1535L8.12953 15.4503L8.12953 8.79887L14.7809 8.79887L19.4842 4.09566L24.1874 8.79887H30.8388V15.4503L35.542 20.1535L30.8388 24.8567Z" fill="#18D39F"/>
</svg>
